<svg xmlns="http://www.w3.org/2000/svg" version="1.1" xmlns:xlink="http://www.w3.org/1999/xlink" xmlns:svgjs="http://svgjs.com/svgjs" width="150" height="150"><svg width="150" height="150" viewBox="0 0 150 150" fill="none" xmlns="http://www.w3.org/2000/svg">
<rect width="150" height="150" rx="75" fill="#303030"></rect>
<path d="M68.0632 89.3852C70.0478 87.2039 70.4456 85.129 70.8433 82.491C70.956 80.7686 71.1284 79.0961 71.1837 77.4237C71.2964 74.84 71.1837 72.3064 71.071 69.7205C70.8986 67.1346 70.6732 64.8554 69.2544 62.5241C66.8146 58.6725 62.6709 57.9613 61.0267 57.709C60.3991 57.6067 59.7781 57.5067 59.1526 57.4546C53.3074 57.2023 47.5195 57 41.7294 57C36.7924 57 31.9128 57.2023 27.0332 57.4546C24.6486 57.7612 22.7171 58.0635 20.6177 59.1792C17.7823 60.6472 16.306 63.0308 15.6807 65.8189C15.568 66.3756 15.4552 66.9325 15.3978 67.4913L15 77.9805C15 82.5411 15.1149 88.1173 19.9392 91.1098C23.0597 93.0345 26.5205 93.2368 30.0962 93.4391C34.6929 93.5413 39.2344 93.6413 43.8289 93.6413C47.8598 93.6413 51.8886 93.5413 55.8621 93.4891C60.2886 93.1846 64.998 92.7301 68.0632 89.3852ZM58.7549 79.1962C58.5273 80.9208 58.3019 81.682 57.7891 82.441C56.5427 84.3679 54.1582 84.5702 51.5482 84.7724H35.2034C31.7979 84.5201 29.7558 84.1135 28.7349 82.8477C27.8265 81.682 27.5989 79.5006 27.4863 76.4603C27.5415 73.6743 27.5989 71.7474 27.7691 70.4817C27.8265 70.2272 27.9967 69.2638 28.4498 68.5048C28.6222 68.2003 28.9603 67.6936 29.7558 67.1869C30.8918 66.4257 31.968 66.1212 34.7503 65.9711H51.8886C55.0665 66.1735 57.3936 66.4257 58.3571 69.2638C58.6422 70.025 58.6975 70.634 58.7549 71.443V79.1962Z" fill="white"></path>
<path d="M91.0357 79.5017H121.381V93.7728H135V57.1331H121.444V70.5244H91.1601V57.1331H77.4189V93.7728H91.0357V79.5017Z" fill="white"></path>
</svg><style>@media (prefers-color-scheme: light) { :root { filter: none; } }
</style></svg>